<svg width="24" height="24" viewBox="0 0 24 24" fill="none" xmlns="http://www.w3.org/2000/svg">
<path fill-rule="evenodd" clip-rule="evenodd" d="M1.75 0C1.29725 0 0.862999 0.17975 0.542999 0.5C0.528499 0.51425 0.51425 0.528499 0.5 0.542999C0.17975 0.862999 0 1.29725 0 1.75C0 1.9455 0.0170025 2.14049 0.0510025 2.33299C0.297503 3.72899 1.5075 10.587 1.5075 10.587C1.545 10.7985 1.71325 10.9625 1.92575 10.9945L8.6295 12L1.92575 13.0055C1.71325 13.0375 1.545 13.2015 1.5075 13.413C1.5075 13.413 0.297503 20.271 0.0510025 21.667C0.0170025 21.8595 0 22.0545 0 22.25C0 22.7027 0.17975 23.137 0.5 23.457C0.51425 23.4715 0.528499 23.4858 0.542999 23.5C0.862999 23.8202 1.29725 24 1.75 24C1.9905 24 2.228 23.9452 2.444 23.8395C4.43175 22.869 19.0282 15.7403 22.821 13.888C23.5425 13.5358 24 12.8027 24 12C24 11.1973 23.5425 10.4642 22.821 10.112C19.0282 8.25975 4.43175 1.13101 2.444 0.160507C2.228 0.0547572 1.9905 0 1.75 0Z" fill="white"/>
</svg>
